<?xml version="1.0" standalone="no"?>
<!DOCTYPE svg PUBLIC "-//W3C//DTD SVG 20010904//EN"
 "http://www.w3.org/TR/2001/REC-SVG-20010904/DTD/svg10.dtd">
<svg version="1.0" xmlns="http://www.w3.org/2000/svg"
 width="1024.000000pt" height="1024.000000pt" viewBox="0 0 1024.000000 1024.000000"
 preserveAspectRatio="xMidYMid meet">

<g transform="translate(0.000000,1024.000000) scale(0.100000,-0.100000)"
fill="#000000" stroke="none">
<path d="M3970 7229 c-550 -30 -1117 -117 -1555 -241 -165 -46 -218 -73 -286
-145 -211 -223 -129 -574 161 -687 72 -29 172 -31 260 -7 778 218 1662 293
2590 221 923 -72 1798 -298 2430 -628 327 -170 310 -162 385 -169 224 -18 421
134 458 354 21 123 -27 274 -115 360 -51 50 -163 118 -348 212 -823 419 -1858
669 -3025 731 -219 11 -729 11 -955 -1z"/>
<path d="M3930 5679 c-176 -12 -458 -44 -640 -74 -286 -47 -701 -149 -791
-196 -91 -46 -171 -165 -184 -274 -14 -108 48 -251 136 -315 106 -76 212 -88
379 -40 339 97 709 160 1110 190 174 13 655 13 835 0 911 -66 1739 -303 2401
-688 146 -85 178 -95 280 -90 131 6 237 75 293 191 58 118 48 247 -26 355 -43
63 -92 98 -296 212 -739 411 -1670 667 -2652 730 -184 12 -662 11 -845 -1z"/>
<path d="M3980 4210 c-178 -14 -398 -38 -590 -66 -242 -35 -659 -119 -719
-145 -67 -28 -133 -100 -156 -168 -43 -131 17 -276 139 -336 82 -40 131 -41
291 -5 77 17 244 49 370 70 749 126 1422 130 2051 15 465 -86 946 -259 1325
-478 166 -95 178 -100 249 -101 254 -1 381 306 198 481 -42 40 -183 124 -368
217 -532 270 -1083 428 -1755 502 -164 19 -853 27 -1035 14z"/>
</g>
</svg>
